<?xml version="1.0" standalone="no"?>
<!DOCTYPE svg PUBLIC "-//W3C//DTD SVG 20010904//EN"
 "http://www.w3.org/TR/2001/REC-SVG-20010904/DTD/svg10.dtd">
<svg version="1.0" xmlns="http://www.w3.org/2000/svg"
 width="1024.000000pt" height="1024.000000pt" viewBox="0 0 1024.000000 1024.000000"
 preserveAspectRatio="xMidYMid meet">

<g transform="translate(0.000000,1024.000000) scale(0.100000,-0.100000)"
fill="#000000" stroke="none">
<path d="M0 5120 l0 -5120 5120 0 5120 0 0 5120 0 5120 -5120 0 -5120 0 0
-5120z m5283 2630 c280 -16 441 -46 739 -136 483 -146 891 -411 1142 -743 196
-259 294 -452 376 -743 69 -244 84 -374 84 -733 0 -341 -9 -439 -63 -661 -107
-433 -272 -734 -561 -1024 -404 -404 -919 -641 -1604 -737 -105 -15 -223 -17
-906 -18 -774 -1 -786 -1 -830 -22 -25 -11 -63 -34 -85 -50 -419 -314 -686
-505 -718 -514 -86 -23 -160 21 -172 104 -4 25 -5 1062 -2 2304 5 2462 1 2309
62 2468 108 287 313 450 630 500 99 16 1651 20 1908 5z"/>
<path d="M3585 6956 c-20 -14 -20 -26 -20 -1568 -1 -854 3 -1561 7 -1570 8
-17 54 -18 747 -18 444 0 780 4 842 11 230 23 503 95 676 179 386 186 634 472
746 860 72 248 89 592 43 846 -60 323 -231 657 -419 812 -282 233 -595 365
-1037 438 -91 15 -203 18 -835 21 -633 4 -733 2 -750 -11z"/>
</g>
</svg>
